<?xml version="1.0" encoding="utf-8"?>
<!-- Generator: Adobe Illustrator 24.3.0, SVG Export Plug-In . SVG Version: 6.00 Build 0)  -->
<svg version="1.1"
	 id="svg2" inkscape:version="0.92.3 (2405546, 2018-03-11)" sodipodi:docname="logo_mady_blanc.svg" xmlns:cc="http://creativecommons.org/ns#" xmlns:dc="http://purl.org/dc/elements/1.1/" xmlns:inkscape="http://www.inkscape.org/namespaces/inkscape" xmlns:rdf="http://www.w3.org/1999/02/22-rdf-syntax-ns#" xmlns:sodipodi="http://sodipodi.sourceforge.net/DTD/sodipodi-0.dtd" xmlns:svg="http://www.w3.org/2000/svg"
	 xmlns="http://www.w3.org/2000/svg" xmlns:xlink="http://www.w3.org/1999/xlink" x="0px" y="0px" viewBox="0 0 926.6 1015.1"
	 style="enable-background:new 0 0 926.6 1015.1;" xml:space="preserve">
<style type="text/css">
	.st0{fill:#349872;}
	.st1{enable-background:new    ;}
</style>
<sodipodi:namedview  bordercolor="#666666" borderopacity="1" gridtolerance="10" guidetolerance="10" id="namedview4" inkscape:current-layer="g12" inkscape:cx="-1360.407" inkscape:cy="507.54666" inkscape:pageopacity="0" inkscape:pageshadow="2" inkscape:window-height="968" inkscape:window-maximized="1" inkscape:window-width="1920" inkscape:window-x="0" inkscape:window-y="30" inkscape:zoom="0.23249094" objecttolerance="10" pagecolor="#ffffff" showgrid="false">
	</sodipodi:namedview>
<g id="g10" transform="matrix(1.3333333,0,0,-1.3333333,0,1015.0933)" inkscape:groupmode="layer" inkscape:label="ink_ext_XXXXXX">
	<g id="g12" transform="scale(0.1)">
		<path id="path14" inkscape:connector-curvature="0" class="st0" d="M5083.1,3514.6c-3.3-6.3-6.9-12.4-11.1-18
			c-26.8-36-69.3-59.8-117.6-59.8c-48.3,0-90.8,23.8-117.6,59.8c-18.2,24.5-29.3,54.4-29.3,87.1c0,3.8,0.8,7.2,1.1,10.8
			c3.1,42.2,23.9,79.2,55.3,104c25,19.8,56.1,32,90.4,32c1.5,0,2.9-0.4,4.3-0.4c78.9-2.4,142.5-66.9,142.5-146.4
			C5101.2,3558.5,5094.3,3535.2,5083.1,3514.6L5083.1,3514.6z M4710.2,3594.4H2163.9c-5.1,76.9-45.6,144.1-105.4,185.3l1268,2196.2
			c33.3-17,70.9-26.8,110.8-26.8c40.2,0,78.1,9.9,111.6,27.2l1265.7-2192.2C4754,3741.8,4713.7,3672.9,4710.2,3594.4L4710.2,3594.4z
			 M2042,3496.5c-26.4-39.3-71.2-65.2-122-65.2c-50.8,0-95.6,25.9-121.9,65.2c-3,4.5-5.3,9.6-7.8,14.4
			c-10.5,20.3-17.1,42.9-17.1,67.2c0,78.7,62.4,142.6,140.2,146.1c2.2,0.1,4.3,0.7,6.6,0.7c33.6,0,64.2-11.8,89-30.8
			c30.8-23.7,51.6-59.1,56.2-99.7c0.6-5.4,1.6-10.7,1.6-16.2C2066.8,3548,2057.6,3519.9,2042,3496.5L2042,3496.5z M3423.1,6339.2
			c4.7,0.4,9.3,1.4,14.1,1.4c5.2,0,10.1-1,15.2-1.5c73.7-7.7,131.6-69.5,131.6-145.3c0-21.4-4.8-41.6-13.1-60
			c-14.4-31.8-39.7-57.4-71.2-72.4c-19-9-40.1-14.5-62.5-14.5c-22.1,0-42.9,5.3-61.6,14c-31.6,14.8-57,40.2-71.5,71.9
			c-8.6,18.6-13.6,39.1-13.6,60.9C3290.4,6270,3348.8,6332,3423.1,6339.2z M4954.4,3828.3c-16.9,0-33.5-1.7-49.5-5L3626,6038.4
			c34.9,42.3,55.9,96.5,55.9,155.5c0,134.9-109.8,244.7-244.7,244.7c-134.9,0-244.7-109.8-244.7-244.7c0-59.4,21.3-113.8,56.5-156.2
			L1967.6,3818.2c-15.4,3.1-31.3,4.7-47.6,4.7c-134.9,0-244.7-109.8-244.7-244.7c0-135,109.8-244.7,244.7-244.7
			c106.3,0,196.7,68.2,230.4,163.1H4726c35.2-92,124.2-157.7,228.5-157.7c134.9,0,244.7,109.8,244.7,244.7
			C5199.1,3718.6,5089.3,3828.3,4954.4,3828.3"/>
		<g id="g16" transform="scale(10)">
			<g class="st1">
				<path class="st0" d="M184.5,237.2v-64.6h-13.1v50h-1.4l-12.6-47.1h-13.1l-12.6,47.1h-1.4v-50H117v64.6h22.3l11.4-47l11.4,47
					H184.5z"/>
			</g>
			<g class="st1">
				<path class="st0" d="M231.4,184.3h-22.6l-2.6-11.7h-13.1l14.5,64.6h24.9l14.5-64.6h-13.1L231.4,184.3z M222.4,226.3h-4.6
					l-6.6-30.7h17.7L222.4,226.3z"/>
			</g>
			<g class="st1">
				<path class="st0" d="M294.4,234.1c3.9-2.1,6.7-5.3,8.2-9.7c1.6-4.4,2.3-10.6,2.3-18.4c0-8.2-0.8-14.6-2.3-19.4
					c-1.5-4.7-4.3-8.3-8.2-10.5c-4-2.3-9.6-3.4-17-3.4h-21.8v64.6h21.8C284.8,237.2,290.4,236.1,294.4,234.1z M286.6,186.5
					c2,1.6,3.3,4,3.9,7.1c0.6,3.1,0.9,7.5,0.9,13.2c0,5.1-0.3,8.9-0.9,11.5c-0.6,2.6-1.9,4.5-3.9,5.7c-2,1.2-5,1.9-9.1,1.9h-8.6V184
					h8.6C281.6,184,284.6,184.8,286.6,186.5z"/>
			</g>
			<g class="st1">
				<path class="st0" d="M326.7,198.7l-19.9,38.5h14.5l11.9-25.7l11.9,25.7h14.5l-19.8-38.5v-26.1h-13.1V198.7z"/>
			</g>
			<g class="st1">
				<path class="st0" d="M383.9,191.6c0,4.7,1.1,8.6,3.2,11.6c2.1,3,5.6,5.4,10.3,7.3c-2.4,2.8-4.1,5.3-4.9,7.4
					c-0.9,2.1-1.3,4.3-1.3,6.6c0,5.3,1.7,9.2,5.1,11.8c3.4,2.6,8.2,3.9,14.4,3.9c6.2,0,11-1.3,14.3-3.9c3.3-2.6,5-6.6,5-11.8
					c0-3.7-1-7-2.9-9.7c-1.9-2.7-5.3-5.7-10.1-9l9.3-9.3c0.4,0.9,0.8,2.8,1.1,5.5c0.4,2.7,0.6,4.9,0.7,6.7l12.3-0.3
					c-0.9-7.3-2.6-13.8-4.8-19.3l10.6-9.3l-7.2-8.3l-10.1,8.3c-2.8-2.8-5.8-4.9-9-6.2c-3.2-1.4-7.4-2-12.4-2
					C391.8,171.4,383.9,178.2,383.9,191.6z M415.3,183.9c2.4,0.7,4,1.6,5,2.8l-16.4,16.4c-4.7-2.3-7-5.9-7-10.8
					c0-6.3,3.7-9.4,11-9.4C410.5,182.8,412.9,183.2,415.3,183.9z M415.5,218.1c1,1.5,1.6,3.2,1.6,5.1c0,4.1-2.1,6.2-6.4,6.2
					c-2.2,0-3.9-0.5-5-1.6c-1.1-1-1.7-2.5-1.7-4.4c0-1.5,0.3-3,1-4.3c0.7-1.4,1.8-2.8,3.2-4.4l1.6-1.7
					C412.6,214.9,414.5,216.6,415.5,218.1z"/>
			</g>
			<g class="st1">
				<path class="st0" d="M482.1,175.1c-3.7,2.4-6.2,6-7.6,10.7c-1.4,4.7-2,11-2,18.9c0,8.6,0.7,15.3,2.2,20.1
					c1.5,4.8,4,8.3,7.5,10.4c3.5,2.1,8.4,3.2,14.6,3.2c5.8,0,12.2-0.9,19.3-2.6l-0.4-10.4c-6.3,0.9-11.4,1.4-15.3,1.4
					c-4,0-7-0.6-9-1.9c-2-1.3-3.4-3.3-4.2-6.2c-0.8-2.9-1.2-7-1.2-12.2v-3.5c0.1-5.4,0.5-9.5,1.2-12.2c0.7-2.7,2-4.6,3.9-5.8
					c2-1.2,5-1.8,9-1.8c4.3,0,9.5,0.4,15.6,1.3l0.3-10.7c-6.9-1.5-13-2.2-18.1-2.2C491.1,171.4,485.8,172.6,482.1,175.1z"/>
			</g>
			<g class="st1">
				<path class="st0" d="M534.4,175c-3.9,2.3-6.8,5.9-8.5,10.8c-1.7,4.8-2.6,11.1-2.6,18.9c0,7.8,0.9,14.1,2.6,19
					c1.7,4.9,4.6,8.6,8.5,11c3.9,2.4,9.2,3.7,15.7,3.7c6.5,0,11.7-1.2,15.7-3.7c3.9-2.4,6.8-6.1,8.5-11c1.7-4.9,2.6-11.3,2.6-19
					c0-7.6-0.8-13.8-2.5-18.6c-1.7-4.8-4.5-8.4-8.4-10.9c-3.9-2.4-9.2-3.7-15.9-3.7C543.5,171.4,538.3,172.6,534.4,175z M558.1,185
					c1.9,1.4,3.3,3.7,4.1,6.8c0.8,3.1,1.2,7.4,1.2,12.8c0,5.4-0.4,9.7-1.2,12.9c-0.8,3.2-2.2,5.6-4.1,7.1c-1.9,1.6-4.6,2.3-7.9,2.3
					c-3.4,0-6-0.8-7.9-2.3c-1.9-1.6-3.3-3.9-4.1-7.1c-0.8-3.2-1.2-7.5-1.2-12.9c0-5,0.3-9.1,1-12.2c0.7-3.1,2-5.5,3.9-7.1
					c1.9-1.6,4.7-2.5,8.3-2.5C553.5,182.8,556.2,183.6,558.1,185z"/>
			</g>
		</g>
	</g>
</g>
</svg>
